<?xml version="1.0" standalone="no"?>
<!DOCTYPE svg PUBLIC "-//W3C//DTD SVG 20010904//EN"
 "http://www.w3.org/TR/2001/REC-SVG-20010904/DTD/svg10.dtd">
<svg version="1.0" xmlns="http://www.w3.org/2000/svg"
 width="190.000000pt" height="190.000000pt" viewBox="0 0 190.000000 190.000000"
 preserveAspectRatio="xMidYMid meet">
<metadata>
Created by potrace 1.14, written by Peter Selinger 2001-2017
</metadata>
<g transform="translate(0.000000,190.000000) scale(0.100000,-0.100000)"
fill="#000000" stroke="none">
<path d="M216 1864 c-21 -14 -35 -21 -32 -15 15 23 -4 10 -20 -14 -13 -21 -15
-30 -6 -48 11 -21 33 -74 37 -89 2 -5 4 -10 5 -13 1 -3 4 -9 5 -15 1 -5 4 -12
5 -15 3 -6 5 -12 14 -50 4 -16 11 -38 17 -47 6 -12 6 -18 -2 -18 -6 0 -7 -5
-2 -12 10 -17 10 -18 12 -84 1 -51 3 -56 21 -51 11 3 18 1 15 -3 -3 -5 1 -11
7 -13 10 -4 10 -6 1 -6 -9 -1 -10 -8 -3 -25 6 -17 5 -26 -3 -30 -7 -2 -7 -5
-2 -5 6 -1 9 -18 8 -38 -1 -21 -2 -46 -2 -56 -1 -9 -6 -16 -13 -15 -7 2 -13
-1 -13 -7 -1 -5 -4 -20 -9 -33 -9 -25 12 -82 30 -82 7 0 14 -6 17 -14 4 -10
-7 -20 -35 -31 -22 -9 -38 -19 -34 -22 3 -4 -1 -15 -11 -25 -9 -11 -11 -18 -5
-18 7 0 11 -3 10 -7 -5 -19 36 -91 49 -86 7 3 13 0 13 -7 0 -6 4 -8 10 -5 6 4
10 -7 10 -24 0 -40 0 -43 10 -61 5 -9 3 -23 -6 -35 -10 -13 -14 -15 -14 -4 0
11 -2 11 -8 1 -10 -16 -3 -72 9 -72 5 0 9 -15 9 -34 0 -19 5 -38 11 -42 8 -4
7 -9 -2 -15 -8 -5 -9 -9 -3 -9 6 0 11 -10 10 -23 -1 -12 5 -28 14 -35 13 -10
12 -11 -5 -5 -18 6 -19 5 -6 -10 12 -15 12 -20 -5 -33 -10 -9 -13 -12 -5 -8
10 5 12 3 7 -5 -6 -9 -11 -9 -22 0 -8 6 -14 8 -14 3 -1 -20 -23 31 -26 60 -2
17 -7 51 -11 76 -5 25 -8 62 -7 83 1 20 -3 37 -8 37 -5 0 -6 5 -3 10 4 6 -5
10 -20 10 -18 0 -29 -6 -32 -19 -6 -24 -30 -34 -37 -16 -5 15 -46 9 -46 -7 0
-5 -4 -6 -10 -3 -9 5 -14 -6 -12 -26 1 -3 -5 -6 -13 -6 -8 0 -12 4 -9 9 3 4
-6 8 -19 8 -14 0 -27 -6 -30 -14 -7 -18 3 -56 14 -56 5 0 9 -8 9 -19 0 -10 7
-24 15 -31 13 -11 13 -15 3 -21 -9 -6 -7 -9 7 -10 11 0 14 -3 7 -6 -9 -3 -7
-11 7 -31 10 -15 22 -37 25 -49 4 -13 12 -23 17 -23 5 0 9 -6 9 -12 0 -7 11
-23 25 -36 13 -13 24 -31 23 -40 0 -27 12 -76 22 -86 5 -5 6 -15 3 -24 -5 -13
-1 -14 28 -8 85 19 114 21 269 20 192 0 335 -20 465 -64 48 -16 92 -34 99 -39
6 -5 27 -12 47 -16 20 -4 52 -16 70 -28 84 -53 166 -73 143 -35 -4 6 -3 8 3 5
6 -4 14 0 17 9 4 10 2 13 -7 9 -6 -4 -4 0 5 8 10 8 15 16 13 19 -3 3 4 13 15
23 13 12 20 14 20 5 0 -9 3 -10 13 -1 8 6 17 8 20 4 4 -3 7 -1 7 6 0 7 4 10 9
7 19 -12 149 133 133 148 -4 4 -2 6 4 4 5 -2 22 10 36 25 32 34 25 73 -11 71
-18 -1 -28 9 -18 19 5 6 -28 35 -35 30 -5 -2 -8 1 -8 7 0 7 -7 10 -15 7 -8 -4
-17 -1 -21 5 -4 6 -3 8 3 5 11 -7 28 20 24 36 -1 5 3 6 9 2 5 -3 17 12 26 34
9 23 21 41 26 41 6 0 8 8 6 18 -3 10 1 23 9 30 7 7 11 17 8 23 -4 5 -2 9 3 9
5 0 15 12 23 27 18 34 45 63 53 56 3 -4 6 -1 6 5 0 17 27 15 34 -3 3 -8 2 -15
-3 -15 -4 0 -7 -16 -6 -35 2 -19 0 -35 -4 -35 -11 0 -11 -39 0 -45 5 -4 12 1
15 9 3 9 10 14 15 11 4 -3 6 4 4 15 -2 11 0 18 5 15 9 -6 46 53 42 68 -1 4 2
7 8 7 5 0 10 7 10 15 0 8 4 23 9 33 8 15 61 126 69 144 7 15 -30 8 -58 -12
-15 -11 -30 -17 -34 -13 -3 3 -6 2 -6 -4 0 -6 -9 -9 -20 -6 -11 3 -20 1 -20
-5 0 -6 -9 -9 -20 -7 -11 2 -20 0 -20 -6 0 -5 -3 -8 -7 -7 -16 3 -63 -15 -63
-24 0 -5 -4 -6 -10 -3 -5 3 -10 -2 -10 -11 0 -10 -3 -15 -6 -11 -8 8 -44 -25
-38 -35 3 -4 -2 -8 -10 -8 -10 0 -16 -9 -16 -22 0 -13 4 -18 8 -13 4 6 15 11
25 11 16 2 17 0 3 -15 -8 -9 -16 -20 -18 -26 -2 -5 -7 -8 -13 -7 -5 2 -7 1 -3
-3 4 -4 -4 -25 -18 -46 -13 -21 -24 -43 -24 -49 0 -5 -4 -10 -10 -10 -5 0 -10
-5 -10 -11 0 -18 -63 -74 -106 -93 -21 -10 -41 -20 -44 -22 -3 -1 -12 2 -20 7
-13 8 -12 12 5 27 19 15 21 25 17 58 -1 7 -14 14 -28 17 -17 3 -24 1 -21 -8 3
-6 -1 -12 -9 -12 -7 0 -11 4 -8 9 3 4 1 8 -5 8 -6 0 -8 6 -5 14 3 7 -2 16 -10
19 -9 4 -12 14 -9 26 3 12 9 18 14 15 5 -3 9 -1 9 3 0 5 13 14 30 20 17 6 30
8 30 4 0 -4 10 -7 23 -6 12 1 27 -2 34 -7 7 -5 17 -7 23 -3 13 8 -20 46 -33
38 -4 -2 -7 5 -7 17 0 12 -4 19 -9 16 -4 -3 -8 4 -7 16 1 17 12 26 46 38 25 9
53 14 62 12 9 -2 25 1 35 7 10 6 12 11 6 11 -12 0 -59 40 -48 40 3 0 0 10 -7
23 -19 35 -18 44 9 56 13 6 21 16 18 21 -6 9 7 14 21 8 3 -2 10 5 16 16 6 11
13 14 17 8 4 -7 12 -6 24 3 16 12 15 14 -13 23 -16 6 -30 16 -30 22 0 6 -4 9
-9 6 -10 -7 -9 25 2 39 26 35 58 65 67 65 6 0 9 4 5 9 -3 6 4 15 16 21 25 14
17 24 -19 26 -15 1 -30 2 -33 3 -4 1 -6 19 -6 40 0 22 4 38 8 35 4 -2 10 5 14
16 3 11 11 20 16 20 6 0 8 4 5 9 -3 5 1 12 10 15 8 3 13 9 11 13 -3 5 1 14 9
21 8 7 14 10 14 7 0 -3 12 6 26 22 32 34 15 42 -32 14 -20 -12 -39 -19 -44
-16 -4 3 -10 -2 -14 -10 -3 -8 -12 -15 -21 -15 -8 0 -15 -3 -15 -7 0 -5 -20
-16 -45 -26 -25 -11 -45 -23 -45 -28 0 -5 -3 -9 -7 -8 -16 2 -53 -14 -53 -23
0 -5 -4 -6 -10 -3 -5 3 -10 1 -10 -4 0 -6 -7 -11 -15 -11 -8 0 -15 -5 -15 -12
0 -24 -12 2 -14 31 -1 17 2 27 8 24 5 -4 7 1 3 10 -3 10 -3 17 2 17 10 0 21
36 14 44 -7 7 -34 -5 -30 -13 2 -3 -17 -24 -42 -46 -24 -22 -41 -33 -36 -25 6
11 2 10 -12 -3 -19 -17 -21 -17 -34 0 -12 15 -12 16 1 8 13 -8 13 -7 1 8 -7 9
-12 17 -10 18 2 0 14 2 26 3 13 2 26 5 29 9 8 8 -35 97 -47 97 -5 0 -9 16 -7
35 2 41 -3 48 -40 50 -15 1 -34 5 -41 10 -10 5 -12 4 -7 -3 10 -17 -3 -15 -21
4 -14 14 -14 16 6 21 11 3 18 9 15 15 -3 5 0 15 6 23 11 13 6 13 -30 0 -24 -9
-57 -18 -73 -20 -16 -3 -34 -7 -40 -8 -7 -1 -15 -6 -19 -12 -5 -6 -8 -5 -8 3
0 7 -5 10 -11 6 -7 -4 -4 7 7 24 18 31 12 61 -6 32 -6 -8 -10 -12 -10 -7 0 4
-13 1 -30 -8 -16 -8 -33 -15 -36 -14 -4 0 -10 -3 -13 -8 -10 -14 -45 -39 -38
-27 3 6 -9 4 -27 -5 -19 -9 -32 -19 -30 -23 3 -4 -3 -6 -13 -4 -10 2 -30 -10
-45 -25 -15 -16 -23 -29 -18 -29 6 0 5 -9 -2 -20 -7 -11 -18 -20 -25 -20 -7 0
-13 -5 -13 -11 0 -5 -4 -8 -9 -4 -5 3 -17 -2 -25 -11 -9 -8 -16 -11 -16 -5 0
6 -5 11 -11 11 -5 0 -7 -6 -3 -12 5 -9 2 -9 -9 1 -9 7 -17 10 -17 5 0 -4 -5
-3 -11 3 -8 8 -20 8 -41 1 -19 -7 -26 -14 -20 -20 14 -14 3 -46 -19 -53 -11
-4 -16 -11 -13 -17 4 -6 3 -9 -2 -5 -5 3 -20 0 -32 -7 -31 -16 -15 -29 58 -45
30 -6 62 -19 72 -28 42 -37 191 -24 267 24 13 9 42 16 63 17 34 2 46 9 80 49
22 26 46 47 54 47 20 0 18 -53 -3 -77 -18 -20 -93 -79 -125 -98 -9 -5 -53 -35
-98 -66 -90 -63 -77 -62 -194 -18 -62 24 -168 100 -198 142 -17 23 -23 47 -25
89 -1 50 1 57 20 62 17 5 19 8 8 15 -10 6 -10 10 -1 16 9 6 9 10 -1 16 -12 7
-12 9 0 9 9 0 10 4 4 13 -6 6 -10 24 -9 40 1 15 -1 27 -4 27 -3 0 -6 20 -7 45
-1 25 2 45 6 45 4 0 6 18 4 40 -2 27 1 40 10 40 7 0 8 3 2 8 -13 9 -17 32 -6
32 4 0 7 11 6 25 -2 14 0 25 5 25 4 0 6 11 5 25 -2 14 2 25 8 25 7 1 1 7 -13
14 -16 10 -32 11 -48 5 -15 -6 -21 -5 -17 1 6 9 -8 14 -27 11 -5 0 -8 4 -8 9
0 15 -11 12 -54 -16z m190 -800 c60 -20 67 -26 103 -79 l29 -43 -23 -27 -22
-28 -44 24 c-40 22 -44 28 -47 67 -3 45 -26 67 -43 41 -6 -10 -9 -2 -9 24 0
20 1 37 3 37 2 0 26 -7 53 -16z m52 -244 c2 0 2 -12 0 -27 -2 -23 -8 -29 -35
-31 -21 -2 -33 -9 -33 -18 0 -8 -7 -14 -15 -14 -12 0 -15 13 -15 60 l0 59 48
-14 c26 -8 48 -15 50 -15z m880 -515 c-12 -25 -25 -45 -29 -45 -5 0 -24 10
-44 21 l-36 22 52 18 c28 10 54 21 57 24 19 18 18 -2 0 -40z"/>
</g>
</svg>
